HIERARCHY
ROOT Hips
{
	OFFSET 0.000000 121.760803 0.000000
	CHANNELS 6 Xposition Yposition Zposition Xrotation Yrotation Zrotation 
	JOINT Spine
	{
		OFFSET 0.072000 7.257294 -0.789700
		CHANNELS 3 Xrotation Yrotation Zrotation
		JOINT Spine1
		{
			OFFSET 0.000000 12.508769 -0.658067
			CHANNELS 3 Xrotation Yrotation Zrotation
			JOINT Spine1_split
			{
				OFFSET 0.000000 12.508769 -0.658067
				CHANNELS 3 Xrotation Yrotation Zrotation
				JOINT Spine2
				{
					OFFSET 0.000000 12.508769 -0.658067
					CHANNELS 3 Xrotation Yrotation Zrotation
					JOINT Neck
					{
						OFFSET 0.000000 14.033295 7.520400
						CHANNELS 3 Xrotation Yrotation Zrotation
						JOINT Head
						{
							OFFSET 0.000000 8.198502 5.703100
							CHANNELS 3 Xrotation Yrotation Zrotation
							JOINT HeadTop_End
							{
								OFFSET 0.000000 17.760803 13.332701
								CHANNELS 3 Xrotation Yrotation Zrotation
								End Site
								{
									OFFSET 0.000000 0.000000 0.000000
								}
							}
						}
					}
					JOINT LeftShoulder
					{
						OFFSET 6.292450 5.785301 -0.669000
						CHANNELS 3 Xrotation Yrotation Zrotation
						JOINT LeftShoulder_split
						{
							OFFSET 6.292450 5.785301 -0.669000
							CHANNELS 3 Xrotation Yrotation Zrotation
							JOINT LeftArm
							{
								OFFSET 13.907140 -6.093903 1.965100
								CHANNELS 3 Xrotation Yrotation Zrotation
								JOINT LeftForeArm
								{
									OFFSET 34.140198 0.000000 0.000000
									CHANNELS 3 Xrotation Yrotation Zrotation
									JOINT LeftHand
									{
										OFFSET 40.960209 0.000000 0.000000
										CHANNELS 3 Xrotation Yrotation Zrotation
										JOINT LeftHandThumb1
										{
											OFFSET 10.006996 -7.170425 9.573125
											CHANNELS 3 Xrotation Yrotation Zrotation
											JOINT LeftHandThumb2
											{
												OFFSET 1.835007 -1.059448 1.059443
												CHANNELS 3 Xrotation Yrotation Zrotation
												JOINT LeftHandThumb3
												{
													OFFSET 2.112267 -1.219513 1.219518
													CHANNELS 3 Xrotation Yrotation Zrotation
													JOINT LeftHandThumb4
													{
														OFFSET 4.843811 -2.796570 2.796576
														CHANNELS 3 Xrotation Yrotation Zrotation
														End Site
														{
															OFFSET 0.000000 0.000000 0.000000
														}
													}
												}
											}
										}
										JOINT LeftHandIndex1
										{
											OFFSET 18.389847 -0.922348 4.596882
											CHANNELS 3 Xrotation Yrotation Zrotation
											JOINT LeftHandIndex2
											{
												OFFSET 4.711273 0.000000 0.000000
												CHANNELS 3 Xrotation Yrotation Zrotation
												JOINT LeftHandIndex3
												{
													OFFSET 2.886131 0.000000 0.000000
													CHANNELS 3 Xrotation Yrotation Zrotation
													JOINT LeftHandIndex4
													{
														OFFSET 6.145912 0.000000 0.000000
														CHANNELS 3 Xrotation Yrotation Zrotation
														End Site
														{
															OFFSET 0.000000 0.000000 0.000000
														}
													}
												}
											}
										}
										JOINT LeftHandMiddle1
										{
											OFFSET 18.013008 0.000000 0.000000
											CHANNELS 3 Xrotation Yrotation Zrotation
											JOINT LeftHandMiddle2
											{
												OFFSET 4.946693 0.000000 0.000000
												CHANNELS 3 Xrotation Yrotation Zrotation
												JOINT LeftHandMiddle3
												{
													OFFSET 3.342232 0.000000 0.000000
													CHANNELS 3 Xrotation Yrotation Zrotation
													JOINT LeftHandMiddle4
													{
														OFFSET 4.461754 0.000000 0.000000
														CHANNELS 3 Xrotation Yrotation Zrotation
														End Site
														{
															OFFSET 0.000000 0.000000 0.000000
														}
													}
												}
											}
										}
										JOINT LeftHandRing1
										{
											OFFSET 15.849892 -0.102921 -4.126150
											CHANNELS 3 Xrotation Yrotation Zrotation
											JOINT LeftHandRing2
											{
												OFFSET 3.527054 0.000000 0.000000
												CHANNELS 3 Xrotation Yrotation Zrotation
												JOINT LeftHandRing3
												{
													OFFSET 2.961098 0.000000 0.000000
													CHANNELS 3 Xrotation Yrotation Zrotation
													JOINT LeftHandRing4
													{
														OFFSET 4.927200 0.000000 0.000000
														CHANNELS 3 Xrotation Yrotation Zrotation
														End Site
														{
															OFFSET 0.000000 0.000000 0.000000
														}
													}
												}
											}
										}
										JOINT LeftHandPinky1
										{
											OFFSET 12.791824 -0.832031 -6.799156
											CHANNELS 3 Xrotation Yrotation Zrotation
											JOINT LeftHandPinky2
											{
												OFFSET 3.327133 0.000000 0.000000
												CHANNELS 3 Xrotation Yrotation Zrotation
												JOINT LeftHandPinky3
												{
													OFFSET 3.014900 0.000000 0.000000
													CHANNELS 3 Xrotation Yrotation Zrotation
													JOINT LeftHandPinky4
													{
														OFFSET 5.847786 0.000000 0.000000
														CHANNELS 3 Xrotation Yrotation Zrotation
														End Site
														{
															OFFSET 0.000000 0.000000 0.000000
														}
													}
												}
											}
										}
									}
								}
							}
						}
					}
					JOINT RightShoulder
					{
						OFFSET -6.292450 5.785301 -0.669000
						CHANNELS 3 Xrotation Yrotation Zrotation
						JOINT RightShoulder_split
						{
							OFFSET -6.292450 5.785301 -0.669000
							CHANNELS 3 Xrotation Yrotation Zrotation
							JOINT RightArm
							{
								OFFSET -13.907140 -6.093903 1.965100
								CHANNELS 3 Xrotation Yrotation Zrotation
								JOINT RightForeArm
								{
									OFFSET -34.140198 0.000000 0.000000
									CHANNELS 3 Xrotation Yrotation Zrotation
									JOINT RightHand
									{
										OFFSET -40.960209 0.000000 0.000000
										CHANNELS 3 Xrotation Yrotation Zrotation
										JOINT RightHandThumb1
										{
											OFFSET -10.007050 -7.170456 9.573117
											CHANNELS 3 Xrotation Yrotation Zrotation
											JOINT RightHandThumb2
											{
												OFFSET -1.835007 -1.059448 1.059443
												CHANNELS 3 Xrotation Yrotation Zrotation
												JOINT RightHandThumb3
												{
													OFFSET -2.112267 -1.219513 1.219518
													CHANNELS 3 Xrotation Yrotation Zrotation
													JOINT RightHandThumb4
													{
														OFFSET -4.843834 -2.796585 2.796590
														CHANNELS 3 Xrotation Yrotation Zrotation
														End Site
														{
															OFFSET 0.000000 0.000000 0.000000
														}
													}
												}
											}
										}
										JOINT RightHandIndex1
										{
											OFFSET -18.389870 -0.922424 4.596786
											CHANNELS 3 Xrotation Yrotation Zrotation
											JOINT RightHandIndex2
											{
												OFFSET -4.711273 0.000000 0.000000
												CHANNELS 3 Xrotation Yrotation Zrotation
												JOINT RightHandIndex3
												{
													OFFSET -2.886131 0.000000 0.000000
													CHANNELS 3 Xrotation Yrotation Zrotation
													JOINT RightHandIndex4
													{
														OFFSET -6.145920 0.000000 0.000000
														CHANNELS 3 Xrotation Yrotation Zrotation
														End Site
														{
															OFFSET 0.000000 0.000000 0.000000
														}
													}
												}
											}
										}
										JOINT RightHandMiddle1
										{
											OFFSET -18.013008 0.000000 0.000000
											CHANNELS 3 Xrotation Yrotation Zrotation
											JOINT RightHandMiddle2
											{
												OFFSET -4.946693 0.000000 0.000000
												CHANNELS 3 Xrotation Yrotation Zrotation
												JOINT RightHandMiddle3
												{
													OFFSET -3.342232 0.000000 0.000000
													CHANNELS 3 Xrotation Yrotation Zrotation
													JOINT RightHandMiddle4
													{
														OFFSET -4.461754 0.000000 0.000000
														CHANNELS 3 Xrotation Yrotation Zrotation
														End Site
														{
															OFFSET 0.000000 0.000000 0.000000
														}
													}
												}
											}
										}
										JOINT RightHandRing1
										{
											OFFSET -15.849876 -0.102936 -4.126237
											CHANNELS 3 Xrotation Yrotation Zrotation
											JOINT RightHandRing2
											{
												OFFSET -3.527054 0.000000 0.000000
												CHANNELS 3 Xrotation Yrotation Zrotation
												JOINT RightHandRing3
												{
													OFFSET -2.961098 0.000000 0.000000
													CHANNELS 3 Xrotation Yrotation Zrotation
													JOINT RightHandRing4
													{
														OFFSET -4.927200 0.000000 0.000000
														CHANNELS 3 Xrotation Yrotation Zrotation
														End Site
														{
															OFFSET 0.000000 0.000000 0.000000
														}
													}
												}
											}
										}
										JOINT RightHandPinky1
										{
											OFFSET -12.791786 -0.832077 -6.799222
											CHANNELS 3 Xrotation Yrotation Zrotation
											JOINT RightHandPinky2
											{
												OFFSET -3.327133 0.000000 0.000000
												CHANNELS 3 Xrotation Yrotation Zrotation
												JOINT RightHandPinky3
												{
													OFFSET -3.014900 0.000000 0.000000
													CHANNELS 3 Xrotation Yrotation Zrotation
													JOINT RightHandPinky4
													{
														OFFSET -5.847786 0.000000 0.000000
														CHANNELS 3 Xrotation Yrotation Zrotation
														End Site
														{
															OFFSET 0.000000 0.000000 0.000000
														}
													}
												}
											}
										}
									}
								}
							}
						}
					}
				}
			}
		}
	}
	JOINT LeftUpLeg
	{
		OFFSET 13.026900 -6.336304 -1.092800
		CHANNELS 3 Xrotation Yrotation Zrotation
		JOINT LeftLeg
		{
			OFFSET 0.524474 -46.096886 9.782700
			CHANNELS 3 Xrotation Yrotation Zrotation
			JOINT LeftFoot
			{
				OFFSET -0.524474 -53.427422 -12.948200
				CHANNELS 3 Xrotation Yrotation Zrotation
				JOINT LeftToeBase
				{
					OFFSET 0.192200 -14.009700 16.364100
					CHANNELS 3 Xrotation Yrotation Zrotation
					JOINT LeftToe_End
					{
						OFFSET -1.784700 -0.561700 9.474800
						CHANNELS 3 Xrotation Yrotation Zrotation
						End Site
						{
							OFFSET 0.000000 0.000000 0.000000
						}
					}
				}
			}
		}
	}
	JOINT RightUpLeg
	{
		OFFSET -12.883000 -6.336304 -1.092800
		CHANNELS 3 Xrotation Yrotation Zrotation
		JOINT RightLeg
		{
			OFFSET -0.524587 -46.096825 9.782800
			CHANNELS 3 Xrotation Yrotation Zrotation
			JOINT RightFoot
			{
				OFFSET 0.524587 -53.427383 -12.948300
				CHANNELS 3 Xrotation Yrotation Zrotation
				JOINT RightToeBase
				{
					OFFSET -0.192200 -14.009700 16.364100
					CHANNELS 3 Xrotation Yrotation Zrotation
					JOINT RightToe_End
					{
						OFFSET 1.784700 -0.561700 9.474800
						CHANNELS 3 Xrotation Yrotation Zrotation
						End Site
						{
							OFFSET 0.000000 0.000000 0.000000
						}
					}
				}
			}
		}
	}
}
MOTION
Frames: 4
Frame Time: 0.016667
-0.157767 49.038689 -1.125916 72.664484 -1.779367 -0.816398 0.751153 -0.156037 0.038244 1.989890 -0.361037 0.703952 0.000000 0.000000 0.000000 1.989557 -0.369635 0.705793 -9.204232 -0.704416 3.164578 0.129147 2.292099 -4.360971 -0.000001 -0.000000 -0.000000 1.107186 -1.022677 0.366517 0.000000 0.000000 0.000000 -53.198161 -52.390181 -60.733789 0.000009 -9.465325 -0.000002 10.586342 -19.105168 86.700413 -1.335219 3.247020 11.085641 10.126216 -4.458091 7.651887 1.077478 -7.608464 23.794140 -0.000000 -0.000001 -0.000000 -4.827141 -13.400623 -17.576720 0.100496 1.081543 -10.616099 0.016785 -0.443521 4.332402 0.000001 0.000000 -0.000001 -3.573214 -14.167602 -13.089247 0.077335 0.949766 -9.309783 0.068706 0.895558 -8.774290 0.000001 -0.000000 0.000000 0.216159 -14.772470 -0.362648 0.436534 2.220937 -22.237339 0.478348 2.320465 -23.292586 -0.000001 0.000001 -0.000003 -11.565748 -10.889325 18.851086 1.477786 3.890862 -41.581959 0.586273 2.556425 -25.829025 0.000000 0.000000 0.000000 1.721916 3.722436 14.170257 0.000000 0.000000 0.000000 -57.852952 62.510424 58.216339 0.000003 10.622196 -0.000016 22.462829 6.417994 -82.516738 -0.201456 3.035656 -7.196450 8.074872 6.487046 -14.042701 5.826165 15.094100 -37.811470 -0.000000 -0.000001 -0.000002 -3.768175 8.510259 18.931748 0.000000 -0.000014 -0.000001 0.115881 -1.033519 12.794598 -0.000002 0.000000 -0.000001 -0.238722 9.461328 1.884916 0.696246 -2.451513 31.705427 0.178744 -1.279167 15.908788 0.000001 0.000000 -0.000001 -0.642236 6.921372 4.616460 0.435034 -1.967175 24.937695 0.263194 -1.544969 19.334590 0.000000 -0.000000 0.000002 -8.414061 -1.159949 -7.808916 0.946330 -2.816004 37.143658 0.177126 -1.273481 15.836142 0.000000 0.000000 -0.000001 -4.892002 11.077558 2.946580 11.704884 4.273744 1.781126 -30.194050 0.244831 -0.560588 -36.260429 2.966453 -12.496647 0.000001 0.000000 -0.000000 -6.450206 -7.606034 -1.732560 13.584771 2.893968 -1.152880 -22.480608 0.148479 -0.255255 -45.425303 -2.160604 7.540269 -0.000000 0.000000 -0.000000 
-0.175227 49.089531 -1.147392 72.691545 -1.785580 -0.818050 0.762592 -0.153872 0.032581 2.014350 -0.356035 0.696149 0.000000 0.000000 0.000000 2.017220 -0.364456 0.698349 -9.222171 -0.707647 3.170100 0.081689 2.286396 -4.356595 0.000001 0.000000 0.000000 1.106208 -1.019218 0.444195 0.000000 0.000000 0.000000 -53.325800 -52.446024 -60.786170 0.000001 -9.373382 -0.000020 10.495926 -19.160197 86.594170 -1.335176 3.246653 11.086000 10.147843 -4.457494 7.634727 1.074257 -7.612201 23.792356 0.000001 0.000000 -0.000002 -4.837817 -13.407077 -17.604553 0.100308 1.080581 -10.606293 0.016771 -0.443494 4.331909 0.000004 -0.000001 0.000001 -3.580318 -14.174207 -13.107830 0.077276 0.949388 -9.306208 0.068569 0.894616 -8.764970 -0.000001 -0.000000 -0.000000 0.214336 -14.770895 -0.368758 0.436221 2.220160 -22.229296 0.477995 2.319658 -23.283982 0.000001 -0.000000 0.000001 -11.556531 -10.896232 18.883832 1.482238 3.895870 -41.647714 0.585623 2.555073 -25.814215 0.000001 0.000001 -0.000003 1.692462 3.818572 14.166786 0.000000 0.000000 0.000000 -57.419078 62.383041 57.737693 0.000002 11.015421 -0.000026 22.411393 6.229450 -82.455533 -0.201456 3.035656 -7.196450 8.074865 6.486992 -14.042694 5.825587 15.094276 -37.811313 0.000000 0.000001 0.000001 -3.768104 8.510264 18.931748 -0.000002 0.000002 0.000005 0.115880 -1.033519 12.794596 0.000000 -0.000000 -0.000000 -0.238723 9.461332 1.884915 0.696245 -2.451510 31.705431 0.178750 -1.279159 15.908793 -0.000000 -0.000000 -0.000001 -0.642231 6.921359 4.616453 0.435030 -1.967165 24.937707 0.263191 -1.544964 19.334580 -0.000000 -0.000000 0.000001 -8.414057 -1.159923 -7.808916 0.946325 -2.816017 37.143672 0.177134 -1.273479 15.836144 -0.000002 -0.000000 -0.000000 -4.937385 11.064907 2.956783 11.677463 4.332242 1.788559 -30.208906 0.246399 -0.560506 -36.253988 2.952664 -12.461059 -0.000000 0.000000 -0.000000 -6.493752 -7.597894 -1.717629 13.564162 2.855510 -1.144617 -22.479196 0.153937 -0.279400 -45.364440 -2.168240 7.582175 0.000000 -0.000000 -0.000000 
-0.196013 49.147766 -1.169777 72.720935 -1.784309 -0.814849 0.777835 -0.152593 0.020025 2.046987 -0.353058 0.686804 0.000000 0.000000 0.000000 2.059572 -0.360989 0.690020 -9.236199 -0.710648 3.176449 0.030640 2.283027 -4.346892 0.000002 -0.000000 -0.000000 1.109415 -1.047178 0.617680 0.000000 0.000000 0.000000 -53.300218 -52.427238 -60.726140 0.000001 -9.495825 0.000007 10.330577 -19.116407 86.488431 -1.335054 3.245459 11.087064 10.172719 -4.455070 7.614902 1.067675 -7.620483 23.794487 0.000000 0.000001 0.000001 -4.849305 -13.415379 -17.633320 0.101670 1.087819 -10.678348 0.016765 -0.443351 4.330539 -0.000001 -0.000000 -0.000001 -3.576268 -14.185621 -13.088183 0.077294 0.949508 -9.307375 0.068394 0.893525 -8.754091 0.000001 0.000000 -0.000000 0.213953 -14.770991 -0.370084 0.436391 2.220573 -22.233876 0.478080 2.319851 -23.286002 0.000002 -0.000000 0.000002 -11.537929 -10.909906 18.948275 1.491646 3.906394 -41.785851 0.585007 2.553799 -25.800445 -0.000000 -0.000001 0.000000 1.608477 4.068155 14.154887 0.000000 0.000000 0.000000 -56.074784 61.951626 56.389229 -0.000001 12.166856 0.000009 22.338101 5.692542 -82.256603 -0.201455 3.035672 -7.196446 8.074868 6.487031 -14.042696 5.823913 15.094708 -37.810910 0.000000 -0.000000 -0.000000 -3.767916 8.510360 18.931770 0.000000 -0.000003 0.000005 0.115884 -1.033527 12.794592 -0.000001 -0.000000 -0.000000 -0.238722 9.461339 1.884913 0.696241 -2.451509 31.705438 0.178745 -1.279174 15.908793 -0.000000 -0.000000 -0.000001 -0.642233 6.921373 4.616445 0.435032 -1.967183 24.937704 0.263191 -1.544960 19.334578 0.000000 0.000001 -0.000001 -8.414058 -1.159916 -7.808904 0.946336 -2.816018 37.143655 0.177127 -1.273482 15.836132 -0.000001 -0.000001 0.000001 -4.975563 11.043628 2.953477 11.617579 4.389080 1.810758 -30.195672 0.243755 -0.553427 -36.301865 2.935903 -12.416641 0.000001 0.000001 0.000000 -6.541839 -7.581729 -1.704969 13.540923 2.809333 -1.139750 -22.472765 0.158224 -0.299068 -45.309798 -2.173988 7.615109 0.000001 -0.000000 0.000000 
-0.220451 49.212486 -1.193832 72.753536 -1.776571 -0.801878 0.795716 -0.152525 -0.000059 2.085601 -0.352767 0.674647 0.000000 0.000000 0.000000 2.114177 -0.359899 0.679518 -9.245072 -0.712871 3.181723 -0.016079 2.281406 -4.334584 -0.000000 -0.000000 -0.000000 1.118103 -1.112104 0.871086 0.000000 0.000000 0.000000 -53.079678 -52.340351 -60.509206 0.000015 -9.849015 0.000018 10.082052 -18.967719 86.379463 -1.334848 3.243507 11.088828 10.184136 -4.450611 7.605700 1.083472 -7.594404 23.758200 -0.000001 0.000000 0.000002 -4.864710 -13.431220 -17.667937 0.102165 1.090436 -10.704347 0.016731 -0.443106 4.328298 -0.000002 0.000001 -0.000003 -3.587270 -14.183180 -13.124475 0.077382 0.950033 -9.312547 0.068585 0.894784 -8.766431 -0.000001 -0.000001 0.000002 0.201517 -14.788799 -0.413984 0.436860 2.221724 -22.245901 0.477239 2.317908 -23.265233 0.000001 0.000001 -0.000003 -11.535561 -10.898847 18.936816 1.498044 3.913525 -41.879530 0.586096 2.556063 -25.825128 -0.000002 -0.000001 0.000001 1.474317 4.460581 14.127445 0.000000 0.000000 0.000000 -54.128047 61.266530 54.462627 0.000007 13.832701 -0.000003 22.245089 4.915905 -81.969619 -0.201456 3.035666 -7.196448 8.074872 6.487027 -14.042696 5.821106 15.095442 -37.810230 0.000000 0.000000 -0.000001 -3.767594 8.510459 18.931802 -0.000000 -0.000000 0.000011 0.115883 -1.033524 12.794592 -0.000001 0.000000 -0.000002 -0.238721 9.461323 1.884905 0.696239 -2.451494 31.705444 0.178750 -1.279174 15.908791 -0.000000 -0.000000 0.000001 -0.642228 6.921360 4.616428 0.435029 -1.967171 24.937722 0.263192 -1.544957 19.334585 -0.000001 -0.000000 0.000001 -8.414057 -1.159936 -7.808913 0.946322 -2.816005 37.143668 0.177128 -1.273481 15.836135 -0.000001 0.000001 -0.000001 -5.006033 11.011947 2.932249 11.527513 4.442796 1.846592 -30.160244 0.239533 -0.546661 -36.385835 2.915439 -12.363293 -0.000001 -0.000000 -0.000000 -6.598831 -7.558235 -1.699562 13.520935 2.759320 -1.139809 -22.465465 0.160907 -0.312388 -45.260313 -2.177557 7.636831 -0.000000 -0.000000 -0.000000 
